# File created by Blade
# Date/Time:  Wed Jan 21 17:05:57 2015
# Frame Rate: 120.000 fps
#------------------------------------------------------
:FULLY-SPECIFIED
:DEGREES
517
root 20.421425 35.039706 -18.472628 -183.808285 3.835257 -180.899720
Spine 12.862708 4.676177 -3.312613
Head 6.801887 -2.941520 3.371657
LeftShoulder 2.093673 -35.513319 16.535559
LeftArm 21.241306 15.856228 -5.857683
LeftForeArm 18.092303 0.000000 -0.851061
LeftHand -4.013974 -0.000000 12.162675
LeftHandThumb1 -26.253704 0.000000 33.147579
RightShoulder -1.056197 -2.332934 -11.690425
RightArm 21.621806 30.813242 12.770751
RightForeArm -36.492533 -0.000000 6.651669
RightHand -8.747898 -0.000000 -4.657194
RightHandThumb1 -24.326973 -0.000000 -32.862282
LeftUpLeg -8.455974 15.836973 3.930850
LeftLeg 21.936344 -0.000000 -0.000000
LeftFoot -26.792078 29.090699 -19.674314
LeftToeBase 22.471788 -0.000000 -0.000000
RightUpLeg -13.036138 -10.200953 -1.298204
RightLeg 28.491212 -0.000000 -0.000000
RightFoot -34.133884 -26.824640 21.451974
RightToeBase 10.491388 -0.000000 -0.000000
518
root 20.411186 35.131663 -18.552343 -183.636722 3.747989 -180.778377
Spine 12.077342 4.559346 -3.177089
Head 7.197125 -2.986907 3.304894
LeftShoulder 1.863633 -35.414130 16.527571
LeftArm 20.780380 15.837366 -5.884876
LeftForeArm 18.024755 -0.000000 -0.830935
LeftHand -3.927217 -0.000000 12.106553
LeftHandThumb1 -26.253704 0.000000 33.147579
RightShoulder -1.289075 -2.436481 -11.527524
RightArm 20.894249 30.723975 12.484444
RightForeArm -36.679059 -0.000000 6.811209
RightHand -8.951135 -0.000000 -4.326311
RightHandThumb1 -24.326973 -0.000000 -32.862282
LeftUpLeg -7.886212 15.639594 3.959748
LeftLeg 20.753425 -0.000000 -0.000000
LeftFoot -26.386582 29.097773 -19.339562
LeftToeBase 21.248031 -0.000000 -0.000000
RightUpLeg -12.428185 -10.029282 -1.195284
RightLeg 27.346077 -0.000000 -0.000000
RightFoot -34.141961 -26.834691 21.706344
RightToeBase 10.167637 -0.000000 -0.000000
519
root 20.406340 35.219612 -18.631778 -183.478666 3.616353 -180.624775
Spine 11.338587 4.436944 -3.028331
Head 7.550718 -2.974728 3.284587
LeftShoulder 1.690542 -35.416021 16.524786
LeftArm 20.273036 15.968030 -5.877314
LeftForeArm 18.044197 0.000000 -0.726358
LeftHand -3.770153 0.000000 12.065288
LeftHandThumb1 -26.253704 0.000000 33.147579
RightShoulder -1.590986 -2.565957 -11.363352
RightArm 20.213363 30.448713 12.155353
RightForeArm -36.231138 -0.000000 6.682339
RightHand -8.660214 -0.000000 -4.385492
RightHandThumb1 -24.326973 -0.000000 -32.862282
LeftUpLeg -7.308492 15.404993 4.023478
LeftLeg 19.589009 -0.000000 -0.000000
LeftFoot -25.954023 29.002517 -18.875461
LeftToeBase 19.921559 -0.000000 -0.000000
RightUpLeg -11.792478 -9.941220 -1.059429
RightLeg 26.207859 -0.000000 -0.000000
RightFoot -34.178191 -26.668637 21.899427
RightToeBase 10.446966 -0.000000 -0.000000
520
root 20.398060 35.302325 -18.710014 -183.334740 3.487249 -180.483100
Spine 10.639999 4.236758 -2.872240
Head 7.872639 -2.970325 3.212678
LeftShoulder 1.431787 -35.291968 16.518632
LeftArm 19.810327 15.983083 -5.825829
LeftForeArm 17.960355 -0.000000 -0.709188
LeftHand -3.819706 -0.000000 12.084704
LeftHandThumb1 -26.253704 0.000000 33.147579
RightShoulder -1.838286 -2.759624 -11.241784
RightArm 19.676606 30.563086 12.021753
RightForeArm -36.362566 0.000000 6.738960
RightHand -8.743450 -0.000000 -4.151715
RightHandThumb1 -24.326973 -0.000000 -32.862282
LeftUpLeg -6.734790 15.157586 4.079727
LeftLeg 18.484840 -0.000000 -0.000000
LeftFoot -25.588151 28.725380 -18.513794
LeftToeBase 18.689950 -0.000000 -0.000000
RightUpLeg -11.124007 -9.789038 -0.941210
RightLeg 25.010675 -0.000000 -0.000000
RightFoot -34.051490 -26.726048 21.984682
RightToeBase 10.256648 -0.000000 -0.000000
521
root 20.384768 35.378947 -18.783165 -183.143598 3.330915 -180.374534
Spine 9.922426 3.994682 -2.751556
Head 8.128966 -2.824670 3.159125
LeftShoulder 1.109993 -35.184179 16.562576
LeftArm 19.359018 15.959743 -5.820219
LeftForeArm 17.999314 -0.000000 -0.722825
LeftHand -3.861017 0.000000 12.243655
LeftHandThumb1 -26.253704 0.000000 33.147579
RightShoulder -2.097151 -2.829207 -11.150736
RightArm 19.139952 30.566659 11.881826
RightForeArm -36.307959 -0.000000 6.724085
RightHand -8.736905 -0.000000 -3.932438
RightHandThumb1 -24.326973 -0.000000 -32.862282
LeftUpLeg -6.236495 14.877404 4.080927
LeftLeg 17.443673 -0.000000 -0.000000
LeftFoot -25.299649 28.236784 -18.303792
LeftToeBase 17.502751 -0.000000 -0.000000
RightUpLeg -10.519363 -9.677587 -0.852225
RightLeg 23.816301 -0.000000 -0.000000
RightFoot -33.916340 -26.761757 22.080690
RightToeBase 10.355706 -0.000000 -0.000000
